<svg version="1.1" xmlns="http://www.w3.org/2000/svg" width="402" height="512" viewBox="0 0 402 512"><title>bold</title><path d="M158.571 434.572c12.571 5.428 26.285 9.143 40 9.143 65.143 0 107.429-26 107.429-95.714 0-17.714-2.286-36.286-11.714-51.428-26.572-42.857-64.857-45.143-110.857-45.143-8.571 0-20.857 0-28.857 2.857 0 30.286-0.286 60.572-0.286 90.572 0 19.714-2.571 73.143 4.286 89.714zM154.571 221.429c10.286 1.714 20.857 2 31.143 2 58.857 0 100.857-16.571 100.857-82.571 0-55.715-49.428-74.857-97.143-74.857-12.571 0-24.857 1.715-37.143 3.715 0 28.857 2.286 57.715 2.286 86.572 0 15.143-0.286 30.285-0.286 45.429 0 6.572 0 13.143 0.286 19.714zM0 475.428l0.572-26.857c18.285-4.572 36.857-4.857 54.572-12.286 10-16.857 8.572-46.572 8.572-65.714 0-6.286 0.572-279.428-6.285-292.857-4.285-8.285-46.285-10.285-55.715-11.428l-1.143-23.715c68-1.143 136-6 203.714-6 12.857 0 26 0.285 38.857 0.285 64.571 0 135.714 30.857 135.714 105.143 0 51.143-38.857 70.286-79.143 88.572 54.286 12.286 102.572 49.143 102.572 109.143 0 98.286-89.428 130.857-173.143 130.857-25.143 0-50.285-1.714-75.429-1.714-51.143 0-102.857 4.572-153.714 6.572z"></path></svg>