<svg version="1.1" xmlns="http://www.w3.org/2000/svg" width="439" height="512" viewBox="0 0 439 512"><title>cog</title><path d="M292.572 256c0-40.286-32.857-73.143-73.143-73.143s-73.143 32.857-73.143 73.143 32.857 73.143 73.143 73.143 73.143-32.857 73.143-73.143zM438.857 224.857v63.429c0 4.286-3.428 9.428-8 10.286l-52.857 8c-3.143 9.143-6.572 17.714-11.143 26 9.714 14 20 26.572 30.572 39.428 1.714 2 2.857 4.572 2.857 7.143s-0.857 4.572-2.572 6.572c-6.857 9.143-45.428 51.143-55.143 51.143-2.572 0-5.143-1.143-7.428-2.572l-39.428-30.857c-8.286 4.286-17.143 8-26 10.857-2 17.428-3.714 36-8.286 53.143-1.143 4.572-5.143 8-10.286 8h-63.428c-5.143 0-9.714-3.714-10.286-8.572l-8-52.572c-8.857-2.857-17.428-6.286-25.714-10.572l-40.285 30.572c-2 1.714-4.572 2.572-7.143 2.572s-5.143-1.143-7.143-3.143c-15.143-13.714-35.143-31.428-47.143-48-1.428-2-2-4.286-2-6.572 0-2.572 0.857-4.572 2.285-6.572 9.715-13.143 20.285-25.714 30-39.143-4.857-9.143-8.857-18.572-11.715-28.286l-52.285-7.714c-4.857-0.857-8.286-5.428-8.286-10.286v-63.428c0-4.286 3.429-9.428 7.715-10.286l53.143-8c2.857-9.143 6.572-17.714 11.143-26.286-9.715-13.714-20-26.572-30.572-39.428-1.715-2-2.857-4.286-2.857-6.857s1.143-4.571 2.572-6.572c6.857-9.428 45.428-51.143 55.143-51.143 2.572 0 5.143 1.143 7.428 2.857l39.428 30.572c8.286-4.285 17.143-8 26-10.857 2-17.428 3.714-36 8.286-53.143 1.143-4.572 5.143-8 10.286-8h63.429c5.143 0 9.714 3.715 10.286 8.572l8 52.572c8.857 2.857 17.428 6.285 25.714 10.572l40.572-30.572c1.714-1.715 4.286-2.572 6.857-2.572s5.143 1.143 7.143 2.857c15.143 14 35.143 31.715 47.143 48.572 1.428 1.714 2 4 2 6.286 0 2.571-0.857 4.571-2.286 6.571-9.714 13.143-20.286 25.714-30 39.143 4.857 9.143 8.857 18.571 11.714 28l52.286 8c4.857 0.857 8.286 5.429 8.286 10.286z"></path></svg>