<svg version="1.1" xmlns="http://www.w3.org/2000/svg" width="293" height="512" viewBox="0 0 293 512"><title>italic</title><path d="M0 474.857l4.857-24.286c18.285-5.714 38-8 55.143-16.857 6.572-8.286 9.715-18.857 11.715-28.857 3.715-19.428 66-299.714 65.143-322.572v-7.143c-15.715-8.572-34.857-6.285-52-9.143l5.428-29.428c36.857 1.715 74.285 4.572 111.428 4.572 30.285 0 60.571-2.857 90.857-4.572-1.143 8.572-3.143 17.143-5.428 25.428-19.714 6.857-40.572 10-60 17.715-6.286 15.428-7.714 32.285-10.572 48.572-13.714 74-32 148-47.143 221.428-2.857 13.714-16.857 70.572-15.714 82.572l0.286 5.143c17.429 4 35.143 6 52.857 8.857-0.571 9.428-2.286 18.857-4.572 28.286-6.286 0-12.286 0.857-18.572 0.857-16.286 0-33.143-5.428-49.428-5.714-19.715-0.286-39.428-0.572-58.857-0.572-25.428 0-50.285 4.286-75.428 5.714z"></path></svg>