<svg version="1.1" xmlns="http://www.w3.org/2000/svg" width="483" height="512" viewBox="0 0 483 512"><title>magic</title><path d="M340 166l83.714-83.715-30.572-30.572-83.714 83.714zM467.714 82.285c0 4.857-1.714 9.428-5.143 12.857l-367.428 367.428c-3.428 3.428-8 5.143-12.857 5.143s-9.428-1.714-12.857-5.143l-56.572-56.572c-3.428-3.428-5.143-8-5.143-12.857s1.715-9.428 5.143-12.857l367.428-367.428c3.428-3.428 8-5.143 12.857-5.143s9.428 1.715 12.857 5.143l56.572 56.572c3.428 3.428 5.143 8 5.143 12.857zM81.715 28l28 8.572-28 8.572-8.572 28-8.572-28-28-8.572 28-8.572 8.572-28zM181.714 74.285l56 17.143-56 17.143-17.143 56-17.143-56-56-17.143 56-17.143 17.143-56zM447.428 210.857l28 8.571-28 8.572-8.572 28-8.572-28-28-8.572 28-8.572 8.572-28zM264.572 28l28 8.572-28 8.572-8.572 28-8.572-28-28-8.572 28-8.572 8.572-28z"></path></svg>